<?xml version="1.0" encoding="UTF-8"?>
<!DOCTYPE svg PUBLIC "-//W3C//DTD SVG 1.1//EN" "http://www.w3.org/Graphics/SVG/1.1/DTD/svg11.dtd">
<!-- Creator: CorelDRAW 2021 (64 Bit) -->
<svg xmlns="http://www.w3.org/2000/svg" xml:space="preserve" width="297mm" height="210mm" version="1.1" style="shape-rendering:geometricPrecision; text-rendering:geometricPrecision; image-rendering:optimizeQuality; fill-rule:evenodd; clip-rule:evenodd"
viewBox="0 0 29700 21000"
 xmlns:xlink="http://www.w3.org/1999/xlink"
 xmlns:xodm="http://www.corel.com/coreldraw/odm/2003">
 <defs>
  <style type="text/css">
   <![CDATA[
    .str0 {stroke:#FEFEFE;stroke-width:20;stroke-miterlimit:22.9256}
    .str1 {stroke:#FEFEFE;stroke-width:19.01;stroke-linecap:round;stroke-linejoin:round;stroke-miterlimit:22.9256}
    .str2 {stroke:#FEFEFE;stroke-width:19.01;stroke-linecap:round;stroke-linejoin:round;stroke-miterlimit:22.9256}
    .fil1 {fill:#FEFEFE}
    .fil0 {fill:#FEFEFE;fill-rule:nonzero}
   ]]>
  </style>
 </defs>
 <g id="Camada_x0020_1">
  <metadata id="CorelCorpID_0Corel-Layer"/>
  <path class="fil0 str0" d="M9016.17 10664.74c-373.35,0 -677.88,-118.44 -913.54,-355.28 -235.69,-236.85 -353.53,-541.95 -353.53,-915.31 0,-373.36 117.84,-678.46 353.53,-915.33 235.66,-236.84 540.19,-355.26 913.54,-355.26 352.38,0 648.73,123.67 889.07,371.02l-185.5 171.53c-186.68,-193.69 -418.87,-290.53 -696.55,-290.53 -296.36,0 -537.3,94.5 -722.8,283.52 -185.52,189.01 -278.28,434.02 -278.28,735.05 0,301.01 92.76,546.04 278.28,735.06 185.5,188.99 426.44,283.51 722.8,283.51 280.02,0 519.2,-96.83 717.54,-290.52l178.51 178.51c-238,242.67 -539.03,364.03 -903.07,364.03z"/>
  <path class="fil0 str0" d="M11577.21 8900.61l234.53 0 0 1729.13 -234.53 0 -3.49 -297.52c-67.68,105.01 -162.18,186.68 -283.51,245.02 -121.37,58.33 -256.7,87.5 -406.03,87.5 -254.36,0 -462.05,-84.01 -623.05,-252.02 -161.02,-168 -241.52,-383.86 -241.52,-647.55 0,-263.68 80.5,-479.54 241.52,-647.54 161,-168.01 368.69,-252.03 623.05,-252.03 149.33,0 284.09,29.76 404.27,89.27 120.18,59.51 215.25,141.77 285.27,246.77l3.49 -301.03zm-1120.08 1340.59c119.03,121.36 271.86,182.03 458.54,182.03 186.68,0 339.53,-60.67 458.53,-182.03 119.02,-121.34 178.51,-280.02 178.51,-476.03 0,-196 -59.49,-354.68 -178.51,-476.02 -119,-121.36 -271.85,-182.03 -458.53,-182.03 -186.68,0 -339.51,60.67 -458.54,182.03 -119,121.34 -178.51,280.02 -178.51,476.02 0,196.01 59.51,354.69 178.51,476.03z"/>
  <path class="fil0 str0" d="M13804.62 9379.17c123.68,39.68 224.61,114.35 302.77,224.02 78.18,109.68 117.26,232.17 117.26,367.53 0,210 -73.51,373.36 -220.51,490.02 -147.02,116.69 -354.71,175.02 -623.04,175.02l-1116.58 0 0 -2450.16 1116.58 0c235.66,0 421.76,57.15 558.28,171.5 136.52,114.35 204.77,270.7 204.77,469.04 0,126.01 -29.75,238.02 -89.26,336.01 -59.52,98.02 -142.93,170.35 -250.27,217.02zm-416.53 -945.06l-854.06 0 0 826.06 854.06 0c154,0 274.19,-36.17 360.51,-108.52 86.36,-72.33 129.53,-172.66 129.53,-301.01 0,-128.35 -43.75,-229.85 -131.26,-304.52 -87.51,-74.67 -207.11,-112.01 -358.78,-112.01zm21.01 1949.63c170.34,0 304.52,-39.66 402.51,-119 98.01,-79.34 147.02,-186.68 147.02,-322.02 0,-135.36 -49.01,-242.7 -147.02,-322.04 -97.99,-79.34 -232.17,-119 -402.51,-119l-875.07 0 0 882.06 875.07 0z"/>
  <polygon class="fil0 str0" points="14461.37,10635.76 14461.37,8185.6 14720.38,8185.6 14720.38,10635.76 "/>
  <path class="fil0 str0" d="M15202.72 8552.51c-53.67,0 -98.03,-16.92 -133.02,-50.76 -35,-33.82 -52.5,-77.58 -52.5,-131.25 0,-53.69 17.5,-98.03 52.5,-133.03 34.99,-34.99 79.35,-52.51 133.02,-52.51 56,0 101.52,17.52 136.51,52.51 35.02,35.02 52.51,79.34 52.51,133.03 0,53.67 -17.51,97.41 -52.51,131.25 -34.99,33.83 -80.51,50.76 -136.51,50.76zm-129.52 2083.24l0 -1729.21 259.04 0 0 1729.21 -259.04 0z"/>
  <path class="fil0 str0" d="M17707.96 8878.64c219.35,0 391.45,66.5 516.28,199.52 124.85,133 187.28,317.34 187.28,553.03l0 1004.57 -259.03 0 0 -990.57c0,-170.35 -39.08,-301.01 -117.24,-392.04 -78.19,-91 -190.78,-136.49 -337.8,-136.49 -149.33,0 -272.43,51.92 -369.26,155.75 -96.84,103.84 -145.26,236.26 -145.26,397.28l0 966.07 -259.01 0 0 -990.57c0,-170.35 -39.11,-301.01 -117.27,-392.04 -78.16,-91 -191.93,-136.49 -341.27,-136.49 -149.35,0 -272.45,51.92 -369.28,155.75 -96.84,103.84 -145.26,236.26 -145.26,397.28l0 966.07 -259.01 0 0 -1729.12 234.5 0 3.52 259.03c128.32,-191.35 311.51,-287.03 549.53,-287.03 140.01,0 261.93,31.49 365.77,94.5 103.85,63 180.27,151.69 229.28,266.02 135.34,-240.34 346.52,-360.52 633.53,-360.52z"/>
  <polygon class="fil1 str0" points="10297.01,8497.95 11801.21,8497.95 11801.21,8709.55 10297.01,8709.55 "/>
  <polygon class="fil1 str0" points="12239.65,10772.85 18414.75,10772.85 18414.75,10899.52 12239.65,10899.52 "/>
  <path class="fil0 str0" d="M12611.23 11127.9l0 452.65 -57.56 0 0 -203.69 -197.89 0 0 203.69 -56.91 0 0 -452.65 56.91 0 0 194.63 197.89 0 0 -194.63 57.56 0zm452.17 455.23c-21.98,0 -42.89,-4.09 -62.72,-12.29 -19.83,-8.19 -37.18,-19.61 -52.04,-34.26 -14.89,-14.65 -26.75,-32.02 -35.59,-52.06 -8.82,-20.05 -13.25,-41.71 -13.25,-64.99 0,-21.97 4.43,-43 13.25,-63.05 8.84,-20.05 20.7,-37.61 35.59,-52.69 14.86,-15.09 32.21,-27.06 52.04,-35.9 19.83,-8.82 40.74,-13.25 62.72,-13.25 21.99,0 43,4.43 63.05,13.25 20.05,8.84 37.61,20.81 52.72,35.9 15.08,15.08 27.03,32.64 35.87,52.69 8.85,20.05 13.26,41.08 13.26,63.05 0,23.28 -4.41,44.94 -13.26,64.99 -8.84,20.04 -20.79,37.41 -35.87,52.06 -15.11,14.65 -32.67,26.07 -52.72,34.26 -20.05,8.2 -41.06,12.29 -63.05,12.29zm0 -273.54c-15.95,0 -30.48,3.04 -43.64,9.06 -13.15,6.05 -24.57,14.12 -34.28,24.27 -9.69,10.11 -17.23,21.75 -22.63,34.91 -5.39,13.15 -8.09,27.06 -8.09,41.7 0,15.52 2.7,29.98 8.09,43.32 5.4,13.38 12.94,24.92 22.63,34.6 9.71,9.71 21.13,17.26 34.28,22.65 13.16,5.38 27.69,8.07 43.64,8.07 15.95,0 30.62,-2.69 43.97,-8.07 13.37,-5.39 24.91,-12.94 34.6,-22.65 9.71,-9.68 17.25,-21.22 22.65,-34.6 5.37,-13.34 8.07,-27.8 8.07,-43.32 0,-14.64 -2.7,-28.55 -8.07,-41.7 -5.4,-13.16 -12.85,-24.8 -22.32,-34.91 -9.49,-10.15 -21.01,-18.22 -34.59,-24.27 -13.59,-6.02 -28.36,-9.06 -44.31,-9.06zm818.2 -58.18c23.3,0 43.23,4.41 59.83,13.25 16.6,8.84 30.19,20.7 40.74,35.56 10.55,14.89 18.21,32.12 22.96,51.73 4.72,19.64 7.11,40 7.11,61.13l0 167.47 -57.56 0 0 -168.77c0,-11.64 -0.96,-23.71 -2.92,-36.22 -1.92,-12.5 -5.49,-23.83 -10.65,-33.95 -5.18,-10.12 -12.5,-18.52 -21.99,-25.22 -9.5,-6.68 -21.98,-10.02 -37.52,-10.02 -12.91,0 -24.45,2.6 -34.57,7.75 -10.15,5.18 -18.77,12.19 -25.88,21.04 -7.11,8.82 -12.6,19.27 -16.48,31.34 -3.88,12.07 -6.05,24.8 -6.48,38.17 0,0.87 0,4.62 0,11.3 0,6.7 0,17.03 0,31.06 0,13.99 0,31.99 0,53.99 0,21.97 0,48.5 0,79.53l-58.19 0 0 -168.77c0,-11.64 -0.99,-23.71 -2.91,-36.22 -1.95,-12.5 -5.62,-23.83 -10.99,-33.95 -5.4,-10.12 -12.84,-18.52 -22.31,-25.22 -9.49,-6.68 -22,-10.02 -37.52,-10.02 -13.8,0 -25.87,2.81 -36.21,8.4 -10.33,5.62 -19.08,13.16 -26.19,22.65 -7.11,9.47 -12.5,20.58 -16.17,33.3 -3.66,12.72 -5.49,26.19 -5.49,40.41l0 169.42 -56.91 0 0 -323.34 56.91 0 0.65 39.47c2.58,-3.88 6.36,-8.41 11.3,-13.59 4.96,-5.18 11.01,-10.12 18.12,-14.87 7.11,-4.74 15.2,-8.74 24.24,-11.97 9.06,-3.23 18.98,-4.84 29.75,-4.84 19.83,0 36.96,3.88 51.42,11.63 14.43,7.76 26.41,16.17 35.88,25.23 11.22,11.2 20.48,23.49 27.8,36.86 2.17,-4.74 5.71,-11.32 10.67,-19.73 4.97,-8.41 11.55,-16.6 19.74,-24.57 8.19,-7.98 18,-14.87 29.42,-20.7 11.42,-5.81 24.89,-8.72 40.4,-8.72zm721.2 266.43c-17.22,20.67 -36.86,36.84 -58.83,48.5 -22,11.64 -46.55,17.44 -73.73,17.44 -25.42,0 -47.73,-4.09 -66.93,-12.29 -19.18,-8.19 -35.23,-19.49 -48.17,-33.94 -12.93,-14.44 -22.62,-31.57 -29.1,-51.4 -6.46,-19.85 -9.69,-41.39 -9.69,-64.66 0,-22 3.23,-42.92 9.69,-62.74 6.48,-19.83 16.17,-37.28 29.1,-52.38 12.94,-15.09 28.99,-27.06 48.17,-35.88 19.2,-8.84 41.51,-13.28 66.93,-13.28 23.27,0 44.41,4.53 63.37,13.59 18.98,9.06 35.03,21.57 48.19,37.52 13.15,15.95 23.39,34.91 30.71,56.91 7.33,21.97 10.99,45.68 10.99,71.12l-250.89 0c0.41,14.22 2.8,27.28 7.11,39.13 4.31,11.85 10.55,22.09 18.74,30.72 8.2,8.6 18.34,15.4 30.41,20.36 12.07,4.96 25.85,7.44 41.37,7.44 15.11,0 28.67,-2.69 40.74,-8.09 12.07,-5.4 22.22,-11.54 30.41,-18.43 9.47,-7.76 17.88,-16.6 25.2,-26.51l36.21 36.87zm-133.21 -209.52c-13.78,0 -26.19,2.26 -37.18,6.79 -10.98,4.51 -20.57,10.43 -28.77,17.78 -8.19,7.33 -14.76,15.74 -19.73,25.2 -4.96,9.5 -8.07,19.21 -9.37,29.11l186.9 0c-2.61,-10.77 -6.7,-21.01 -12.29,-30.72 -5.62,-9.69 -12.41,-18.09 -20.39,-25.2 -7.97,-7.13 -16.91,-12.72 -26.84,-16.82 -9.9,-4.1 -20.67,-6.14 -32.33,-6.14z"/>
  <path class="fil0 str0" d="M15879.3 11127.9c14.22,0 30.17,1.06 47.85,3.23 17.69,2.14 35.47,6.24 53.34,12.29 17.91,6.02 35.35,14.33 52.38,24.89 17.04,10.57 32.12,24.36 45.28,41.39 13.15,17.03 23.71,37.61 31.68,61.75 7.98,24.15 11.98,52.82 11.98,86.02 0,34.91 -4.87,64.76 -14.56,89.56 -9.71,24.79 -22.21,45.46 -37.51,62.06 -15.3,16.6 -32.43,29.64 -51.42,39.13 -18.96,9.49 -37.7,16.6 -56.26,21.35 -18.53,4.74 -35.78,7.76 -51.73,9.03 -15.95,1.3 -28.45,1.95 -37.49,1.95l-122.88 0 0 -452.65 129.34 0zm-6.46 398.35c28.43,0 54.21,-4 77.27,-11.98 23.06,-7.97 42.67,-19.3 58.84,-33.95 16.17,-14.65 28.67,-32.33 37.51,-53.03 8.85,-20.69 13.26,-43.97 13.26,-69.82 0,-27.18 -4.1,-51.54 -12.29,-73.08 -8.19,-21.56 -19.93,-39.99 -35.25,-55.29 -15.3,-15.3 -34.17,-26.94 -56.57,-34.92 -22.44,-7.97 -47.85,-11.97 -76.31,-11.97l-70.5 0 0 344.04 64.04 0zm838.88 -8.41c-17.23,20.67 -36.86,36.84 -58.84,48.5 -21.99,11.64 -46.55,17.44 -73.72,17.44 -25.42,0 -47.73,-4.09 -66.94,-12.29 -19.18,-8.19 -35.22,-19.49 -48.16,-33.94 -12.94,-14.44 -22.62,-31.57 -29.11,-51.4 -6.45,-19.85 -9.68,-41.39 -9.68,-64.66 0,-22 3.23,-42.92 9.68,-62.74 6.49,-19.83 16.17,-37.28 29.11,-52.38 12.94,-15.09 28.98,-27.06 48.16,-35.88 19.21,-8.84 41.52,-13.28 66.94,-13.28 23.27,0 44.4,4.53 63.36,13.59 18.99,9.06 35.04,21.57 48.19,37.52 13.16,15.95 23.4,34.91 30.72,56.91 7.33,21.97 10.99,45.68 10.99,71.12l-250.89 0c0.41,14.22 2.79,27.28 7.11,39.13 4.31,11.85 10.55,22.09 18.74,30.72 8.19,8.6 18.34,15.4 30.41,20.36 12.07,4.96 25.85,7.44 41.37,7.44 15.1,0 28.67,-2.69 40.74,-8.09 12.07,-5.4 22.21,-11.54 30.41,-18.43 9.46,-7.76 17.87,-16.6 25.2,-26.51l36.21 36.87zm-133.21 -209.52c-13.79,0 -26.19,2.26 -37.18,6.79 -10.99,4.51 -20.58,10.43 -28.77,17.78 -8.19,7.33 -14.77,15.74 -19.73,25.2 -4.97,9.5 -8.07,19.21 -9.38,29.11l186.9 0c-2.6,-10.77 -6.7,-21.01 -12.29,-30.72 -5.61,-9.69 -12.4,-18.09 -20.38,-25.2 -7.97,-7.13 -16.91,-12.72 -26.84,-16.82 -9.9,-4.1 -20.67,-6.14 -32.33,-6.14zm616.46 221.81c13.78,0 26.84,-2.7 39.13,-8.1 12.29,-5.4 25.32,-12.82 39.11,-22.31l38.81 39.44c-20.26,16.82 -39.56,28.36 -57.87,34.6 -18.34,6.26 -38.05,9.37 -59.18,9.37 -23.71,0 -45.7,-4.19 -65.97,-12.6 -20.26,-8.41 -37.82,-19.83 -52.69,-34.26 -14.87,-14.46 -26.53,-31.49 -34.91,-51.1 -8.41,-19.62 -12.63,-40.63 -12.63,-63.06 0,-23.71 4.22,-45.8 12.63,-66.28 8.38,-20.46 20.04,-38.26 34.91,-53.34 14.87,-15.09 32.43,-26.84 52.69,-35.23 20.27,-8.41 42.26,-12.62 65.97,-12.62 20.7,0 40.53,3.44 59.49,10.36 18.96,6.89 38.16,18.09 57.56,33.61l-38.81 39.44c-12.51,-8.6 -25.21,-15.83 -38.15,-21.66 -12.93,-5.81 -26.31,-8.72 -40.09,-8.72 -15.08,0 -29.54,3.01 -43.32,9.06 -13.8,6.02 -25.88,14.33 -36.21,24.88 -10.36,10.56 -18.55,22.75 -24.58,36.53 -6.05,13.81 -9.06,28.46 -9.06,43.97 0,14.24 3.01,27.83 9.06,40.74 6.03,12.94 14.22,24.36 24.58,34.29 10.33,9.9 22.41,17.88 36.21,23.93 13.78,6.02 28.24,9.06 43.32,9.06zm563.41 53c-21.97,0 -42.88,-4.09 -62.71,-12.29 -19.83,-8.19 -37.18,-19.61 -52.05,-34.26 -14.89,-14.65 -26.74,-32.02 -35.58,-52.06 -8.82,-20.05 -13.25,-41.71 -13.25,-64.99 0,-21.97 4.43,-43 13.25,-63.05 8.84,-20.05 20.69,-37.61 35.58,-52.69 14.87,-15.09 32.22,-27.06 52.05,-35.9 19.83,-8.82 40.74,-13.25 62.71,-13.25 22,0 43.01,4.43 63.06,13.25 20.04,8.84 37.61,20.81 52.72,35.9 15.08,15.08 27.03,32.64 35.87,52.69 8.84,20.05 13.25,41.08 13.25,63.05 0,23.28 -4.41,44.94 -13.25,64.99 -8.84,20.04 -20.79,37.41 -35.87,52.06 -15.11,14.65 -32.68,26.07 -52.72,34.26 -20.05,8.2 -41.06,12.29 -63.06,12.29zm0 -273.54c-15.95,0 -30.47,3.04 -43.63,9.06 -13.16,6.05 -24.58,14.12 -34.29,24.27 -9.68,10.11 -17.22,21.75 -22.62,34.91 -5.4,13.15 -8.1,27.06 -8.1,41.7 0,15.52 2.7,29.98 8.1,43.32 5.4,13.38 12.94,24.92 22.62,34.6 9.71,9.71 21.13,17.26 34.29,22.65 13.16,5.38 27.68,8.07 43.63,8.07 15.95,0 30.63,-2.69 43.98,-8.07 13.37,-5.39 24.91,-12.94 34.59,-22.65 9.71,-9.68 17.26,-21.22 22.65,-34.6 5.38,-13.34 8.07,-27.8 8.07,-43.32 0,-14.64 -2.69,-28.55 -8.07,-41.7 -5.39,-13.16 -12.84,-24.8 -22.31,-34.91 -9.49,-10.15 -21.01,-18.22 -34.6,-24.27 -13.59,-6.02 -28.36,-9.06 -44.31,-9.06zm602.88 -58.18c16.82,0 32.12,2.57 45.92,7.76 13.79,5.18 26.94,12.72 39.45,22.62l-31.04 51.75c-7.34,-7.78 -15.63,-14.24 -24.91,-19.42 -9.25,-5.15 -19.08,-7.75 -29.42,-7.75 -13.8,0 -25.87,2.81 -36.21,8.4 -10.34,5.62 -19.08,13.16 -26.19,22.65 -7.11,9.47 -12.51,20.58 -16.17,33.3 -3.66,12.72 -5.49,26.19 -5.49,40.41l0 169.42 -56.91 0 0 -323.34 56.91 0 0.65 36.22c3.88,-5.59 9.06,-10.99 15.52,-16.15 6.45,-5.18 13.37,-9.71 20.69,-13.59 7.33,-3.87 15.08,-6.89 23.28,-9.05 8.19,-2.15 16.16,-3.23 23.92,-3.23z"/>
  <path class="fil1 str0" d="M15106.66 11359.81c27.25,0 49.37,22.09 49.37,49.34 0,27.25 -22.12,49.37 -49.37,49.37 -27.25,0 -49.35,-22.12 -49.35,-49.37 0,-27.25 22.1,-49.34 49.35,-49.34z"/>
  <path class="fil0 str1" d="M18447.45 8584.81l-71.95 0 0 123.65 -40.57 0 0 -306.3 101.38 0c34.53,0 61.03,7.9 79.63,23.63 18.61,15.71 27.86,38.63 27.86,68.65 0,19.08 -5.18,35.75 -15.45,49.97 -10.33,14.14 -24.62,24.77 -43,31.8l71.94 129.75 0 2.5 -43.37 0 -66.47 -123.65zm-71.95 -33.15l62.12 0c20.02,0 35.97,-5.18 47.8,-15.59 11.85,-10.41 17.8,-24.33 17.8,-41.71 0,-18.96 -5.66,-33.53 -16.93,-43.65 -11.28,-10.12 -27.57,-15.23 -48.89,-15.38l-61.9 0 0 116.33z"/>
  <path class="fil1 str2" d="M18437.34 8274.3c155.61,0 281.74,126.12 281.74,281.73 0,155.61 -126.13,281.73 -281.74,281.73 -155.6,0 -281.73,-126.12 -281.73,-281.73 0,-155.61 126.13,-281.73 281.73,-281.73zm0 43.05c131.84,0 238.69,106.85 238.69,238.68 0,131.84 -106.85,238.68 -238.69,238.68 -131.83,0 -238.68,-106.84 -238.68,-238.68 0,-131.83 106.85,-238.68 238.68,-238.68z"/>
 </g>
</svg>
